<svg id="Layer_1" data-name="Layer 1" xmlns="http://www.w3.org/2000/svg" viewBox="0 0 2011.5 1194.4"><defs><style>.cls-1{fill:red}</style></defs><path class="cls-1" d="m259 3096-2-2 4-5c1 3-2 5-2 7ZM845 3078v6a6 6 0 0 1 0-6Z" transform="translate(41 -1985)"/><ellipse class="cls-1" cx="851.4" cy="1100.9" rx=".3" ry="2.1"/><path class="cls-1" d="M458 3114c0 2-2 0-3 1v-1ZM1727 3114c0 2-2 0-3 1v-1ZM1738 3109l-2 1c0-2 1-1 2-1ZM469 3109l-2 1c0-2 1-1 2-1ZM1740 3108l-2 1c0-2 1-1 2-1ZM471 3108l-2 1c0-2 1-1 2-1ZM257 3098l1-2a9 9 0 0 1 0 1l-1 1ZM1356 3102v2l-1-2ZM812 3078v2l-1-2ZM700 3070l1 1ZM701 3071l1 1ZM702 3072l1 1ZM703 3073l1 1ZM704 3074l1 1ZM705 3075l1 1ZM706 3076l1 1Z" transform="translate(41 -1985)"/><ellipse class="cls-1" cx="991.4" cy="1097.9" rx=".2" ry=".7"/><path class="cls-1" d="m716 3085 1 1h-1Z" transform="translate(41 -1985)"/><ellipse class="cls-1" cx="450.4" cy="1100.9" rx=".2" ry=".7"/><ellipse class="cls-1" cx="994.4" cy="1102.9" rx=".2" ry=".7"/><ellipse class="cls-1" cx="296.4" cy="1114.9" rx=".7" ry=".2"/><path class="cls-1" d="m254 3103 1-1-1 1ZM1567 3114v1l-1-1h1ZM794 3118v1l-1-1h1ZM1376 3098v1l-1-1h1ZM1051 3124h1v1l-1-1ZM1605 3124v1l-1-1h1Z" transform="translate(41 -1985)"/><ellipse class="cls-1" cx="1681.4" cy="1149.9" rx=".2" ry=".7"/><ellipse class="cls-1" cx="889.4" cy="1164.9" rx=".7" ry=".2"/><ellipse class="cls-1" cx="1471.4" cy="1144.9" rx=".7" ry=".2"/><path class="cls-1" d="M851 3151v1l-1-1h1ZM1433 3131v1l-1-1h1ZM1239 3085a2 2 0 0 1-3-2 2 2 0 0 1 3 2ZM1252 3094l-2-1c1 0 2-1 2 1ZM1240 3086l-1-1ZM1241 3087l-1-1ZM1250 3093l-1-1ZM1253 3095l-1-1ZM1262 3103l-1-1ZM1262 3103h1v1l-1-1ZM1691 2691c0 4 4 1 5 3l10-8 1-3 16-9h3v4l22-11c4-3 10-5 13-10l2-1-1-1a12 12 0 0 0-1 2l-4-1c1-4 6-4 9-5 12-8 24-17 37-24l6-5 2 3 1-2a3 3 0 0 0 0-2 45 45 0 0 1-2-23 3 3 0 0 0 0-2 9 9 0 0 0-1-1c3-2 2-8 7-5l-3-17c2-8-1-15 0-23 1-3 0-6 3-8v-7c-2-4-1-7 0-10l3-6 3-29c-3-3 1-6 1-9l3-31 2-8a24 24 0 0 1-1-5c0-5 2-10 0-15v-5c3-10 3-10 2-18-1-4-2-9-1-14a62 62 0 0 0 1-8c-6-3-11 1-17 0l-17-2-7 5c-7-4-16-8-25-8l-49-5c-12-1-23-5-35-6-3 0-6-2-8-3l-14-9-8-1c-5 6-14 4-20 8-4 0-6-5-11-2h-11c12-5 18-14 22-24l7-21c3-10 4-21 5-31v-15c0-5 2-10 1-15-3-9 1-17 0-26-5-5-4-13-5-20-2-9-3-19-7-28-2-4-4-8-8-11l-7-7-11 1v-5c11-5 21-10 34-11 4 3 8 6 14 6l16-2 4 6 1-6a10 10 0 0 1 2-2c10-3 19-10 30-13l24-7 8-2c8-4 18-6 28-9l27-8 11-5c14-5 29-8 43-12 9-2 17-2 25-7 11-1 21-8 32-10l1-2 52 5 5 13 8 14c2 3 2 6 2 9l-5 3v5l-11 8-9 9-7 3c-2 9-2 19 1 29l-1 6-3 31 1 8c0 3 1 7-1 9-3 5-3 10-3 16-1 8-3 16 0 25l21 8-3 22c-6 6-14 5-22 7l-1-6-8-1c-8-1-15-4-22-6-11-3-21-9-33-8-6 0-10-3-15-6-3-1-4-4-3-8l21-8 5-15c4-12 4-26 5-39v-24l-4-3c4-2 4-6 4-7-3-6-3-14-10-19l-1 5-3-1-32 6-36 6c-1 1-4 0-7-2l-33 12-3-2-20 8-4 9-1 7c1 9 1 9-1 16l-2 8-9 3 3-5 4-18 5-19-4 3a19 19 0 0 1-4-1l-9 34-8 3 2 16-3 7 2 1 2-5v9l4 1c-1 5-5 9-2 14l2-2 1 2c-1 4 0 8-3 11-2 3-2 8 0 12 1 4 0 9-1 13l4 4-2 2 2 6h19c6 0 12 5 20 3l-7-3 1-1 18 4c5 1 12-1 17 4h6l31 4c9 1 18 5 28 4 6 5 14 4 21 5 14 1 27 6 41 6 9 5 18 3 26 5l5 3c2 7-5 13-3 20l-22 12-1 8h-6v4l3-2v2c-1 4-6 8-5 14 2 17-2 33-3 50l-6 51c-1 9 3 18 0 26-5 14-4 28-6 42-2 10 0 20 1 29l5 31c1 6 0 12 4 17-6 5-13 7-19 7-7 1-12 2-15 7-7 7-17 10-24 16l-7 4c-9 8-19 13-29 18s-20 0-29 6c-15 9-31 19-47 26-14 7-46 17-48 18l-1-5c-8 3-82 1-104-13-2 0-2-3 0-2l6-24 14-32s1 9 2 8l2-1-2-3 3-25 3-14c2-4 0-9 4-13 0-9 4-18 1-28v-7c0-6 4-12 0-19l2-4c2-5 3-9 0-13l2-4a35 35 0 0 0 1-7c1-16 7-31 7-48 4-7 4-15 5-22 0-3 3-5 2-7-1-9 0-18 1-26-4-6 1-12 0-17l-1-16 3-7-22-21 15-5a21 21 0 0 1 11 4l11 4 17 10c7 4 15 9 24 5 10 2 20 0 29 5l7 1 29 3c-5 4-15 7-28 7l-6 9c-1 15-8 28-12 42l-11 30-7 22-8 24c-1 5-3 11-3 17v14c0 5-2 9-1 14 3 14-2 28-2 42l-2 3c-1-5 1-10 1-14l1-13 1-13h-2l-2 25c-1 8-3 16 0 24l3-1-4 40 3 6c6 2 12 5 19 5Zm13-253-6 28v1c-4 5-4 11-6 17l-6 17c-3 6-4 14-9 18l-2 17 4-6 4-12a129 129 0 0 0 5-14c2-5 5-10 5-14a50 50 0 0 1 5-15c3-5 0-11 5-15 0-8 4-15 6-24Zm180-293-10 4 5 12c2-7 6-11 5-16Zm-218 515-3 26h3c4-9-1-18 0-26Zm30-392-6 8 3 4 3-2 1 8h1l1-11-3-7Zm-37 408h-1l-1 11 4 1-2-12Zm-9 50c-4 0-6 1-6 5l6 1v-6Zm-51-44-1-1-4 8h4Zm214-550 1-8-6 5Zm-145 39-2 2 1 3h5Zm187 474 7 1-1-4Zm-96 50-1-1-3 6h4Zm-56-433h2v-6h-1Zm-50 486-1-5h-1l2 5Zm28-302h-2l1 6h1Zm-10 115h-1v4h1Zm-3 12v1l4 1 1-1Zm30-305h2v-4h-1Zm17 155h-2v3h1Zm-1-10v1h4v-1Zm78 245h-2v4h1Zm-93-411h1v-4h-1Zm174 401h-2l1 3h1Zm-87 13h1v-2h-1Zm69-42-1 2h1Zm-145-190v1h2v-1Zm-12-98-2-1v1ZM590 2156l14 7a28 28 0 0 0 11 5c8 2 14 7 22 9 2 0 2 4 4 7l21 3 3 8 16 4c6 2 12 2 18 2l2 11-4 3c-4-2-6-2-8 2l-2 8-12 14c3 7 6 15 6 24 0 10 3 19 2 30v29c2 8 1 16 2 24 3 13 4 26 10 38v2c0 9 3 17 3 26-1 5 1 11 1 16s-1 12 1 17 0 10 2 14c1 5 0 11 2 15 2 7 0 14 5 22l8 4a13 13 0 0 0 0 12c3 9 6 18 5 28-1 12 4 24 2 36 4 10 2 20 6 30v8l2 6c2 15 6 30 10 44l5 22 5 24 9 17-2 1 2 1 4 9 6-1v-4l23 14v2c-10 2-20 6-31 5-8-1-16 2-24 2h-26c-12 3-23 2-34 2l-24 2-1-3-26-6c7-4 12-8 17-9 9-2 15-7 23-11l3-5 6-9c0-7-5-13-7-20-1-1-2-2-1-3 1-9-3-18-3-27 0-10-3-20-1-31-5-3-6-8-7-12-2-11-7-21-9-32 0-4-2-7-3-11l-2-10-7-27-15 10-11-16-6 2c-15 1-30 0-45 2-18 3-36 1-54 2-8 1-17 2-22 8l-3 12-9 36c-2 7-4-19-5-11-2 8-4 17-4 26 0 3-3 6-2 10l2 11v39c6 1 5 7 7 11h3v3a79 79 0 0 1-6 8l-6 7c-8 7-15 14-24 19a174 174 0 0 1-28 14c-7 9-21 13-33 22l-3-5-14 5-5-2c7-12 14-25 18-39l9-34c2-10 7-19 10-28l2-6c-1-7 2-15-2-22 1-6-2-13 2-19a6 6 0 0 0 0-4c-2-10 2-20 2-31 1-5 1 23 2 18 2-5 1-11 2-15 3-5 2-10 2-16l3-12 3-1v-11c-6-3-11-10-20-6l-19-13 1-6a61 61 0 0 1-1-6l-1-13c-1-6-5-11-6-17l-4-10-1-4c4-10 1-21 2-31 1-11-3-22-2-34 0-5-3-10-4-15l6-10v-9l7 6 6 16 12 25c7 12 16 23 30 29l8 6c3 2 7 2 10 2 4-4 4-10 3-15l-2-1c-1-6 3-11 6-16 6-12 9-25 14-37a163 163 0 0 0 4-19c2-8 6-16 7-24l8-27 6-24v-4l3-17c1-5 0-11 3-16l1-6v-28l3-6a10 10 0 0 1 1 2c0 3-1 7 3 8l1-5 4-4-2-4c4-9 3-19 6-30l-3 2a7 7 0 0 1-1-2c-1-4 4-8 1-12s1-9-3-12v-7l4 3-5-22-2 5-3-18c3 3 4 7 8 8 2-6 2-6-1-11h-14c5-2 7-4 9-3 8 1 15-3 23-3 4 0 9 0 12-2 5-3 9-2 14 0l9 2 2 3-25 6 3 4a53 53 0 0 1 21 10c8 8 17 15 27 21 2 0 3 2 4 4l-2 2-3 1 8 8 2-5c2 0 4 5 5 0Zm-79 289 5-34c-6 11-7 23 0 6 0 5 2 11 0 15s-1 8-2 12l-2 12c0 3 1 7-2 10-1 1 1 4 1 8l13-7c10 2 19 0 27 6l-2 2c7 6 15 6 22 5l2-4c19 5 39 8 59 6v-22l2 1v21l2-5a36 36 0 0 1 2-5c-4-6-1-13-4-19l-1-4-2 5c-2-6 0-12-2-17l-4-26-2-18c-3-2-1-6-2-9l-2-9c-1-7 0-14-2-20-2-4 0-9-2-13-3-4-1-9-2-13l-1-5c-1-4-2-9-1-13 2-12 2-12 0-23l1-5c2-7 2-14-2-21l-4 5-4-6-2 1-30-21 13 7c9 6 8 6 12 6-7-7-15-12-5 0l-28-12c4 4 2 7 0 10-4 6-6 11-5 16l-7 19a7 7 0 0 0-3 1l-8 9-1-2-3 4 6 3 5-2-4 10-3-3 2 7-8 25c-2 7-2 15-5 21-3 7-2 14-5 21-2 5-2 11-3 17l-2 8v10l-7 29Zm-137 284c3-16 11-32 12-49-4 16-11 32-12 49Zm301-73c0-11 0-11-7-17l3 21Zm-229-251c-3 8-7 17-7 26 3-9 7-17 7-26Zm286 340-6-7-5 7Zm-321-206 4 8 2-9-2-2Zm250-316-1-3-4 3a16 16 0 0 0 3 0 6 6 0 0 0 2 0Zm9-1c-5 0-5 0-5 3Zm-256 236c0 6 0 6 2 5l-2-5Zm-51-40h1v-3h-1Zm229-258v1h2v-1Zm-28 79h2Zm115 461h1v-2h-1Zm-278 38v1h2v-1ZM817 2121l3-3c2-6 7-8 11-11l9-5 22 12v6l10 5c2-1 6 1 9-2h67c6 0 13-1 19 2 3 1 8 1 11-2l9 6c8-2 17 3 26 5l12 1 11 2 8-5 3-5a13 13 0 0 1 2 0h26c9 1 17-3 26-2l7-7a40 40 0 0 1 5 2l7 5c2 0 5 1 5-2 7 2 17 9 20 14l19 26a16 16 0 0 1 3 9l-2-2-4-3c2 6 0 10 2 15 2 3 3 9-1 13v4a96 96 0 0 1-4 28v11c0 3 1 6-2 9v6c3 9 2 19 2 28-1 10 3 19 2 28v28c0 10-4 20-2 30-4 9-2 18-2 27-1 9 0 19-3 29-2 7-1 14-1 21-1 8-2 16 0 23 2 8 1 17 2 25l1 6 3 14c2 12 1 25 2 37l2 16 2 15c0 8-2 13-6 19l-3 5-4-6-3 10 6-2-2 7c-7 4-8 12-12 18a136 136 0 0 1-13 20c-9 11-20 20-27 33l-7 12-1-5-6 4-3-1c-5-5-10-7-18-4-5 2-11 3-17 3-3-1-6 1-10 1a70 70 0 0 1-8 0l-33 13c-7 2-15 4-23 4l-11 2c-4 0-8-1-12 2h-12a40 40 0 0 1-14 2l-16 10h-4l2-5-14 8v1h4l-2 2c-6 2-11 6-17 7l2-4c-3 1-7 0-8 4h-2l2 2c0 3-3 1-5 2l-16 18-15-8-1 4-6-3 2-3-2-3c7-7 10-16 12-25l6-18c1-6 4-10 9-13l-4-1c3-4 1-9 2-14l11 2 19-21 21-19-2-35a11 11 0 0 1 2-7v16c4-7 1-13 3-19 2-5 2-12 1-18-2-6-2-12-2-18h-4v37h-2v-10c1-27-3-54-2-81 0-15 3-30 2-45v-46l4-2c-3-7-2-15-2-22v-33l4 3v-6c-3-8-2-16-2-24v-15c-5-3 1-9-4-13v-1l-2-21-4-4a11 11 0 0 0 0-3c-2-5 3-11 1-15-2-5 0-10-2-16l-3-3v-8l-23-38a26 26 0 0 0-3-4l-8-10c-2-3-7-6-11-9l-2 2c-9-16-25-27-32-45Zm320 425 1 2 1-1-1-1c-3-4-6-5-11-5a11 11 0 0 0 10 5Zm-63-331h3c-4-9-10-16-19-20-4 5-12-2-17 4h-15c-3-2-3-2-7-2l-1 2h8v1l-24 7-25 5a34 34 0 0 1-2 12c-2 5-1 11-2 16l-3 14-5 25c-2 6-1 13-3 19l-2 12-2 13a150 150 0 0 0 0 18l3 20 7 26 3 2c-3 20 3 39 1 59l-3-3c-2 9-6 17-4 24s1 16 2 23v10c1 4-1 6-1 9 0 4 3 6 3 10v22c-1 8 2 15 2 23v39l3-3c9 8 13 19 16 31l10-3-3 4 3 1 21-6c3-1 7-1 10-3 7-3 15-6 22-11l8-3c7-4 15-3 21-9v-108h2v59h2l1-23c2-24-1-48 3-72v-28a41 41 0 0 0-1-4c0 10-4 19-3 29v29a23 23 0 0 1-1 3l-1-7c-2-25 2-51 2-77v-3l4-4c-1-6 1-14-2-19l2-6c-1-13 1-26-2-39-1-9 3-20 1-30-2-11 0-22-1-34v-5c-3-14-3-15 0-27l-1-4-3 7v-10l-10-15Zm24 175h-2v22c-4 8-1 15-1 23l3-7v-38Zm-194 54h-1v27l3-3Zm209-229c3-6 3-9 3-12h-3ZM1555 2137l-5 6c1 3 0 9-1 14l-8 17c-1 7-6 15-1 22-1 5 3 9 2 14s-1 9-3 13l-1 8c-3 6-5 12-10 16l-26 25c-6 5-12 10-19 13l2-7-4-2c-1-9-1-17-7-24a11 11 0 0 1-2-8l5 3-7-28h-1l-1 7h-1l-1-9h-17c-7 0-13 1-20-1-9-3-17 2-26 4l-5 1c-9 2-19-2-27 2-3-3-7-1-11-2l-7 5 2 3c-15 4-22 7-35 16a8 8 0 0 0 0 3c4 13 2 26 2 39v24c0 5 1 10-2 15a11 11 0 0 0 0 9c4 6 2 11 0 18 10-3 19-2 29-1l-4 2v2l2 1 15-4c5-2 9-4 14-4 7-1 13-4 19-4l9-6h32c6-5 12-10 21-8l29-22-3 8a77 77 0 0 1-16 14 12 12 0 0 0 3-1v-3l-2-1a26 26 0 0 0-3 3c-1 1-1 2 2 2-3 9-1 19 1 30a85 85 0 0 0-6 9c-1 4-5 9 3 13-10 2-11 9-15 13l-1-5c-2 3-5 4-3 7a30 30 0 0 1 4-2c0 4-2 7-5 10l-9 10-1-12a19 19 0 0 1-3 0 33 33 0 0 0-4-3l-7 3h11l-2 2c-6 0-12 2-17-1-2-1-5 1-7 2l-3-2h-2c-3 3-7 3-11 4l-20 4c-5 2-10 4-15 4a17 17 0 0 0-6 2l-14 7-11 16h-10v70c4 13 1 26 2 40l2 14v35c1 5 4-12 6-7 0 0-1 20-3 21 2 2 3-17 4-15l3-2v10l6 8 6-1c6 14 20 18 32 28l2 4h-4a19 19 0 0 0-5-3v1a17 17 0 0 0 2-1h-2a19 19 0 0 1 5 3c5 7 11 14 19 19l1-3 7 6 12 11-2 1 2 1v2l2-2h5a134 134 0 0 1 24-38c3-4 4-8 8-12a39 39 0 0 0 8-11c3-6 5-13 4-19l-7-12-5-13c2-5 5-11 4-17l4-5-4-1v-11c1-22-3-43-3-65l1-14v-14c-4-2-9-2-11-7l8-2-5-3 6-5h-1 3l23-18 11-7 5-3c7-10 17-16 25-25 7-8 16-12 25-17 4-2 6-2 10-1-3 5-6 10-7 15 0 14-7 27-4 40l-4 4v7l-5 3c-2 10-1 20-1 30l-5 19a32 32 0 0 0-1 7c-1 7 1 14-1 21-3 22 0 44-2 66 0 9 2 17 5 24l5 14v13c-2 10-8 17-13 24l-5 11a25 25 0 0 1-7 13l-12 12 2 4c-5 12-12 24-16 37-2 7-7 14-14 17-3 2-4 4-5 7l-12 18-6 9 2 2-5 4-3 24-3 3v-24c-8-6-17-11-23-18a13 13 0 0 0-7-4l-18-2-12-15-26-22c-8-7-18 8-23-2l-5-6-12-16h-8c-12-10-25-2-38-10l-16-7-31-17 22-26 5-42 5 8c2-6 1-30 0-34l-2 26c0-6-3-32 1-37 0-11 4-22 2-32a55 55 0 0 1-2-23c2-12 1-25 2-37l2-17 4-4v-21c-3-13-1-27-2-40l-2-14 4-1c0-4 1-9-1-14-2-6-3-13-7-20v-5l4 3-2-7 10-16v-61l-2-12-1-11c-2-4-2-10-3-15 0-7-1-13-3-19a11 11 0 0 1-1-7c1-3-3-5 0-8l-2-3-4-5-4-4 7 3c0-4 0-4-4-10 11 1 17-5 25-11 7 0 13 4 19 7l3-2c3 2 7 3 10 1 4-2 9-1 13-1h13a64 64 0 0 0 17-2c6-2 12 1 18-2l4-1c13 0 25-1 38 1a222 222 0 0 0 30 1l10-1a72 72 0 0 1 11 0c2 0 4-1 6 1a2 2 0 0 0 2 1c6-4 14-1 19-3 6-2 12 1 16-4 6 2 11-2 15-2l10-12c3 4 7 2 10 0l16 8c4-1 6-4 11-4Zm-247 315v30c1 11-3 20-2 28l4 11 2 33v9h2v-41l-2-31v-37a9 9 0 0 0-1-2Zm10-185h-2v19c0 6-1 13 2 19Zm53-113c-12-1-12-1-15 3h16l-1-3Zm64 504 2 1 10-16c-8 3-9 10-12 15Zm-185-314c2-3 7-5 3-10l-3 1Zm70 280c2 2 3-15 8-14-3-4-5 12-7 8l-1 6Zm-14-12c-1-2-2-5-7-4a22 22 0 0 1 3 3 20 20 0 0 1 1 3Zm122-271c-5 1-5 1-6 5Zm-5 385c6 1 6 1 6-1Zm-2 7h1v-4h-1Zm-106-111h1v-4h-1Zm130-466h-2l1 4 1-1Zm7 479v1h2v-1ZM195 2686c0-6-1-13 1-19s1-12 1-17l-2-6 2-4c-1-10 3-20 3-31v-82l-7-10h7l-9-6c0-6-2-14 0-20 3-9 1-18 2-26l-2-5 4-1v-21l-3-1-2 8-2-5-5-1-2-4c-22 2-43-3-65-2a77 77 0 0 0-34 8l-6 1c1 11-5 22-5 34-3 4-1 10-4 15v5c-1 7 1 13-2 19v10a2587 2587 0 0 1 1 69 19 19 0 0 0 3 10c4 7 7 14 7 22l10 4 2-2 3 4a21 21 0 0 0-2 2c1 2 1 6 4 7 1 4-1 6-8 11l5-5-4-4-6 6c0 2 0 4 5 3 6 0 1 2-1 5-4 8-8 12-13 14l2 2-9 13-3-3c-2 2-4 4-3 7-4 1-2 3 0 5l-16 26c-1 1-3 3-3 5v7c-1 10-10 19-7 31l-5 2c1 5-3 9-7 13-7 8-14 15-18 25l-3 3-10 14 3 4-8-2-6-8 2-2v-7l-6 3-3-6 25-15c0-12 4-23 7-33l2-6v-123l-4-1-3-21c-1-7 1-16-3-23l10-8v-165c0-12-3-23-2-35-4-4-2-9-3-14l-2-14c-3-10-2-21-6-31l-1-7v-43c0-5 1-9-2-14-2-4-1-9-2-13-4-20 0-40-3-60-2-15 0-30-2-45-5-2-8-7-13-10 0-6 0-11 2-16s2-11 3-16l-13-9-2-16 10 3 1 4 3-3c4 6 11 9 17 12 7 2 12 7 18 11l11 4c4 1 8 2 11 5a58 58 0 0 0 18 8l22-8 5 3-2 3 7 5a60 60 0 0 0-9 26c0 6-5 11 0 16-4 5-2 11-2 16a134 134 0 0 0 0 18l2 12v12l2 3c-3 8-3 16-1 25l1 5v44l-1 5 1 10-4 9v10l-2 17 6 8h31l1 5h20l6 5 4-3h14c8 1 15-2 22-5l28-14 3-17v-21l3 6c2-4 2-7-1-11l2-3a149 149 0 0 0 0-18c0-5 2-10-2-16v-7c4-8 3-17 2-25-2-9 0-18-2-26-4-21 0-42-3-64-1-4-7-4-9-9-2-3-6-5-10-8v-9l3-3 18 9 4 7 5-3c2 4 7 4 10 6s4 6 9 7l10-3 16 8 3 2c4 7 10 11 17 14l-5 8h9l5 3v3c-5 2-3 8-7 11 0 10-4 19-4 29l-2 13c0 5 1 8-2 12v2c1 15-4 29-2 44l6 1v77c0 9-3 17-2 26 0 8 1 17-1 25-2 13 0 25-2 37-3 19 0 39-2 58l-2 24-4 1v37c3 3 4 7 4 12l2 14a126 126 0 0 0 2 14c2 7 1 15 1 24l3 2c1 6 3 11 3 17 1 8-1 16-4 25l-1 10c-1 6-3 12-3 19-1 1 1 3 1 5l-2 2 2 4c0 6-8-20-6-13-4 3-4 7-6 10-1 3-5 5-8 7l6 4-31 4c-1 2-2 6-8 6-4-3-8-3-13-1l-4 1-1 6-8-2c-1-2 5-4 1-6l-3 2 3-12 2 3 5-6-6-2v-12l5-3c-2-4 2-8-3-11Zm29 23h5l-1-5-4 3v-1l-1-2-1 1a6 6 0 0 0 2 1 9 9 0 0 0 0 3v-1l-2 2 1 1a6 6 0 0 0 1-2Zm-19-50 2-1-1-27-2 1v15l-2 15h1l2-3Zm-49-230v2h14l1-2Zm-41-72c-5-1-10-3-15 0Zm91-196h-2c1 4-1 8 2 13Zm-44 265c-5-2-9-3-13 0ZM17 2254c2-6 0-5-3-5Zm189-105-2 1 1 5h1Zm-20 205c4 1 6 0 5-2Zm11 117h-2l1 6h1Zm-94-98v2l3-1v-1Zm71 56v2l3-1v-1Zm-31-5v2l3-1v-1Zm-67 234h2l-1-3h-1Zm119-301h-1v3h1Zm-52 3h1v-3h-1Z" transform="translate(41 -1985)"/><ellipse class="cls-1" cx="977.5" cy="208.4" rx=".7" ry="16"/><path class="cls-1" d="m1740 2160 18 3c-7 2-9 2-18-3ZM1504 2090v-10a10 10 0 0 1 0 10ZM934 2172v-12c3 5 1 9 0 12ZM1734 2102v-10c2 3 1 7 0 10Z" transform="translate(41 -1985)"/><ellipse class="cls-1" cx="1773.1" cy="125.1" rx=".7" ry="5.8"/><path class="cls-1" d="M932 2151v-7h1l1 7ZM1590 1990c1-3 2-6 6-4ZM1505 2090c4 1 2 4 2 6-4-1-1-4-2-6ZM1736 2090v-4h1l1 3Z" transform="translate(41 -1985)"/><ellipse class="cls-1" cx="1921.1" cy="19.3" rx=".5" ry="1.4"/><ellipse class="cls-1" cx="1771" cy="113.8" rx=".5" ry="1.4"/><ellipse class="cls-1" cx="1919" cy="15.2" rx="1.4" ry=".5"/><path class="cls-1" d="m1875 1995 2 2-2-1ZM718 2088l-1 2-1-1 2-1ZM718 2088l2-2-2 2ZM720 2086l1-2 1 1-2 1ZM1518 2137l-2 2v-1l1-1Z" transform="translate(41 -1985)"/><ellipse class="cls-1" cx="1440" cy="91.2" rx="1.4" ry=".5"/><path class="cls-1" d="m733 2067-2 2h-1l2-2ZM393 2216l-2-2 1-1 1 2ZM1279 2187l-2-2h1l1 1Z" transform="translate(41 -1985)"/><ellipse class="cls-1" cx="683.5" cy="136.4" rx=".5" ry="1.4"/><ellipse class="cls-1" cx="621.8" cy="163.2" rx=".5" ry="1.4"/><path class="cls-1" d="m1109 2067-1 1-1-2M335 3001h1c2-2-1-4-1-6l-3-2-3-8h-3l-4-11-3 2-3-7h-1a40 40 0 0 1 0 4l-1 3-2 11-4 15-3 14a7 7 0 0 0-1 3v50c2 9 0 18 1 26l1 14-2 2 2 3 1-3v5l5 10 4 9a15 15 0 0 0 3 6l7 5-5 4 4 3-2 2-4-3h-6l-15-11a35 35 0 0 0-3-1l-2-3-9-4a3 3 0 0 0-3 1c-6-4-13-8-20-9l-6-4-2-2h2l3-10h1c1 1-1 2-1 4l-1 3c4-1 4-4 6-6l4-7 3-3-2-8 1-1-1-1a51 51 0 0 0 1-5v-9l1-6 1-6v-44l1-10v-11l1-7c2 4 1 8 2 13v-3l1-13v-14l-1-21a7 7 0 0 0-3-6v-33c-1-1-1 1-2 1a12 12 0 0 1 0-2v-20c-1-3 1-6-2-8 1-5-1-9-2-13l-4-16-4-11h-2l-2-6h-2l-3-3v-8l3-4 2-1 1 1h1c3-3 6-4 9-5 4-2 8-2 12 0s7 2 11 2h3a2 2 0 0 0 2 1c6-2 12 0 18-1 8-2 15-1 22-1h3l-5 2-2 4 2 1-2 7c-1 5-1 10-3 14a14 14 0 0 0 0 8 16 16 0 0 1 1 5c0 6 2 11 5 15 3 5 5 10 5 16a27 27 0 0 0 2 14l2 7 1 16a103 103 0 0 1 8 18l4 10v1c0 4 2 6 3 9l3 8a80 80 0 0 1 3 8c1 3 4 4 4 7v-28l-1-35-1-7c0-2 1-4-1-6a2 2 0 0 1 0-1c3-5 1-9 0-14l-1-1-1-22 1-2-3-15 1-2-1-1h3a14 14 0 0 0 4-7l7-6a119 119 0 0 0 15-11l16-13c4-3 8-6 13-7-4 8-7 17-8 27l-2 1-1 26-1 14-1 17-1 14-1 18v47l-1 11v26l2 1a3 3 0 0 1 0 1v27l1 9v9l1 2c-2 2 0 5 0 8v9l3-1v2a17 17 0 0 1 4 2 15 15 0 0 1 2 3l-2 6-4 2-10 14-5 7a1 1 0 0 1 0 1c-4 1-5 4-7 7v3l-1-1-4 4c1 3-2 3-4 3v1l-7 2c1-3-1-6 1-9l1-13 1-2c1-2 0-3-1-5l-12-31c0-3-2-5-3-7l-7-19-4-12-3-4-2-7-2-6 1-2a34 34 0 0 0-1-5l-4-10a10 10 0 0 1-1-2Zm-20-73v-1h-1a3 3 0 0 0 2 1h-1l1 3a3 3 0 0 0-1-3Zm12-31v-3h-2a5 5 0 0 0 3 3h-1v4l2-1a7 7 0 0 0-2-3Zm-65-51 5 19a37 37 0 0 0 0-17 20 20 0 0 1-3-1 23 23 0 0 1-2-1Zm142 15v-18c-1 6-3 12 0 18Zm-55 106h1l-2-6c-1-2 0-5-2-6l2 10a18 18 0 0 0 1 2Zm-71-13v-5l1-5h-2l-1 6a3 3 0 0 0 2 4Zm24-127 1-2-1-1-8 2Zm67 95c0 2 0 5 2 7v-7Zm0 13c-2 2 0 4 1 7v-7Zm-54 28-2 2 1 5 1-7Zm-30-136v-1h-5c1 2 3 2 5 2Zm19 171 1 8 1-7Zm-28-34h1v-7h-1Zm51-12a3 3 0 0 0-1-4c-1 2-1 3 1 4Zm-55-127h-3l1 2Zm-2 269h1v-4h-1Zm37-269h-1l1 3Zm-37 255h1v-3h-1Zm132-203h-1l1 3Zm-66 54v1h2v-1Zm-20 4h1v-2h-1Zm50 88h1v-2h-1Zm-97 89h-1v2h1Zm-16-284v-1ZM1218 2760h2a2 2 0 0 1 3 0 17 17 0 0 0-1 1h-1v1a3 3 0 0 0 1-1l1 1 9-3c4-2 8-3 13-3a21 21 0 0 1 13 6c5 4 9-3 14 1v3a36 36 0 0 1 6 6c9 10 17 33 25 42 3 4 0 7 3 11 5 4 10 8 14 15l2 1-1 6h-4l-2 1-2 6v1a48 48 0 0 0-1 5v6l6 1a33 33 0 0 0 0 3l-2 4 1 1a4 4 0 0 1 1 1l-2 16a111 111 0 0 1-1 16 72 72 0 0 0-1 10 35 35 0 0 0 0 9 30 30 0 0 1 1 5l1 4a5 5 0 0 1-1 2l-1 13c1 2 3 2 3 4-2 8 0 18-1 26l-2 1-1 8v7l1 7v27a8 8 0 0 0 1 3v4l-3-1c0 4-3 6-4 9a59 59 0 0 1-7 8l-9 11-3 2-2 4a78 78 0 0 0-11 9 22 22 0 0 1-3 3l-4 5-12 15-8 9c0 3-2 3-3 4l-1-2-6-1-4 2-2-3h-3v-3l-14-20-9-10-4-4-10-10-5-5v-3l-6-4a106 106 0 0 1-11-8c-2-3-5-4-6-9l-2-1c4-3 7-5 9-11a48 48 0 0 1 1-9l2-10a5 5 0 0 0 0-1l2-26-1-7 2-17 1 2h1l1-17 1-18-1-23v-47l1-15v-16l1-2v-4l-1 3a6 6 0 0 1 0-2 43 43 0 0 0-1-8c0-3 1-6-1-9 0-1 6-33 9-34s15 0 18-2a25 25 0 0 1 8-3l6-4-1 3a16 16 0 0 1-2 2 4 4 0 0 0-1 0h-1v1a3 3 0 0 0 1-1 4 4 0 0 1 1 0Zm32 303h1v-1a2 2 0 0 0-1 1l-1 1h1a2 2 0 0 0 0-1Zm-33-20-1 1c2 4 4 7 8 10l-3-6h1l5 6-1 1 3 3c1 1 0 3 2 3l3 3a3 3 0 0 0-1-2l-3-5h2l4 8h-1l6 8 2-2v-2l-2-2c5-5 9-10 14-13 7-4 12-10 18-14 0-2 6-3 6-4l3-13 2-3c0 2-2 3-1 6v-2h1v7a6 6 0 0 0 2-5l1-11a3 3 0 0 0-1-1h-1v7c-1-1-1-1-3 2l1-14 1-1 2-13-2 2 1-4 1-8a12 12 0 0 0-1-2c-1-5 0-10 1-14v-10a18 18 0 0 1-1-6l1-12a19 19 0 0 0-1-3c2-7-4-14-4-21v-20l5-1-1-12a27 27 0 0 1 0-10l1 2v-6a37 37 0 0 1 0-7l-2-3v-7l-1-7c1-6 1-11-1-18l-2-14c-2-4-5-6-8-8l-14-13c-2-2-4-3-5-2l-7 1-1-1v1h-3l1 1a9 9 0 0 1-2 1c-3 0-5 2-9 0l-8 1c-1-1-2 1-3 1v-1c-3 1-7 0-9 3v1l-3 2v7l1-1 1 2v28l-1 9h3l-2 10-1 11-1 11 2 4-2 3 1 2-3 8-3 21-2 1c1 9 2 18 1 26l-1 1-1 3 1-11v-15a13 13 0 0 0-2 7l-1 30a18 18 0 0 0 0 2l1-5v13a13 13 0 0 0 0 3v14c-2-3-1-7-1-11-1 5-2 10 0 16v24a34 34 0 0 1-1 4v6c1 4 2 6 4 7l8 2h-4a8 8 0 0 0 5 5 39 39 0 0 1-1-5l7 10Zm12 58c-8-11-9-12-13-13l7 9 7 10v-3l-1-1v-2Zm58-268a47 47 0 0 0 0 20l1-3v-4a5 5 0 0 1 0-3l2-6-1-2-1 2-1-4Zm25 68c-2 6 0 12-1 17 1 2-1 4 1 8v-25Zm-66-117c3 3 3 3 5 3l-1-3Zm-9 292 1-2 1-1c-1-1-1-3-3-2l1 5Zm-53-243v-6l-1-1 1 7Zm-4 143h-1v4l1 5Zm132-78h1l-1-6Zm-73 194 2-2a8 8 0 0 1-2-1 5 5 0 0 1-1-1l1 4Zm-56-148h-1v7l1 1Zm31 99 1-1-4-3c0 3 2 3 3 4Zm-9-241-7-1v-2h5l2 3Zm0 98c0 3-7 15-6 15v-14l6-1Zm-7 132v-2h6v2h-6Zm5-64c0-2 0-2-2-2Zm85-2h-1l1 1Zm20-108v1-2Zm-95 196v-2Zm96-202v1-1ZM1038 3103l-2-2c-2 1-2 4-4 4h-11l-5 5v-5l-10-1c-3-1-7-1-11 1l2-6 2-7c-2-2-3-5-3-8v-16l1-14 1-9c2-3 1-6 1-9 2-1 4 0 6 1l2-4c0-2 1-5-1-7l-1-3v-16c1-8-1-16-1-23l-1-5-3-3h2v-6l3-2-2-2c1-5-2-10-2-15l-1-6a27 27 0 0 0-1-4l-1-9-1-5a35 35 0 0 0-1-4 46 46 0 0 1-1-8l-2-16-1-6-1-5-4-22-1-1c1-2 2-3 0-4l-4-17-3-11c1-6-2-12-4-17l-6-18a72 72 0 0 0-5-13 8 8 0 0 1-1-2c5 0 10-1 14 1l6 1 4 5 13 2 14 2 1 2h3l-3 6a75 75 0 0 0-2 8c0 4-2 8 0 12-2 3 0 7 0 10l1 10 1 7 1 8 2 13 3 14c0 6 3 12 4 19l6 17 3 6c3-9 6-17 5-26l-3-2 4-8a7 7 0 0 1 0-6c1-3 1-5-1-7 3-3 7-3 8-7h5a16 16 0 0 0 9-3 27 27 0 0 1 3-2l6-3c3-1 5-2 8 0a31 31 0 0 0 5 2l5 1-3 5 3 2-8 9h-2l-1 1v7l2 6 2 14 4 12 2 5c1-3 2-6 1-9l1-5 1-5 1-6 3-11 4-18 4-15 1-6 1-6 1-39v-8c2-4 1-8 2-11a47 47 0 0 0 0-9 6 6 0 0 0-1-4l-2-5-2-4-2-5a7 7 0 0 0-1-2h-2l-2-3 1-1h8a23 23 0 0 0 4-1l1 1c5-1 10 1 15 1a40 40 0 0 1 5 1c2 0 4-1 6 1h16a13 13 0 0 1 8 4c-3-1-5 1-8 1l-5 22-4 13-1 5-1 5c-1 2 0 34-2 35 0 8-4 14-5 22l-2 9-2 9-2 7-1 8-2 11-1 8-1 7-1 8-1 8-1 6v6l-2 15 2 2v15l-1 6v7l-1 5v5l-1 6-1 8-1 20-4-1-1 1-2 10 1 7 2 6c0 3 2 6 1 9 0 5 2 10 1 15v14l-1 12v12l1 8 1 8a36 36 0 0 1 0 6 32 32 0 0 0 1 6c2 5 2 10 5 15l4 9h-3l-10-4a15 15 0 0 1-8-8 41 41 0 0 0-8-12l-5-5-5-6-10-10a8 8 0 0 0 2-6l2-13 1 1a5 5 0 0 0-1-1l1-7 1-6 1-7c0-7 2-14 1-21l-2 2-1-1a178 178 0 0 0 0-18l-1-19a12 12 0 0 0-1-5l-5-15-7-26a56 56 0 0 0-1-8l-2-8-2 1-10 20-10 18a27 27 0 0 0-3 9v11c0 3 1 6-1 8l-1 3v43l6 4a21 21 0 0 0-1 4l1 5-3 1Zm13-116c-3 3-6 9-6 12a42 42 0 0 0 6-14l-1 1a8 8 0 0 0 1 2v-1Zm31 41c1-7-3-12-3-18v-2l-4-3v-5l-1 1v-2c0 10 4 19 7 29Zm10-111c0-3 2-6 1-9 2-1 1-4 2-5l1-6a29 29 0 0 1 2-6l1-6v-4c-2 1-1 3-2 4l-4 14-1 8a29 29 0 0 0 0 10Zm-29 52 2 11c0 4 2 7 3 11l-1-14c-1-3 0-6-4-8Zm-50-129c0-4 0-4-2-7v5Zm38 137a2989 2989 0 0 0 0 0Zm32 158c0-2 2-2 1-4l-4 2Zm-60-220c-2 2 0 3 1 5l1-1c-2-1 0-4-2-4Zm70 9v3h2v-5Zm11-166h-3l2 3h1Zm-2 118 1 4a8 8 0 0 1 1-5v-1Zm-119-70-3-3v3Zm130 358v1a23 23 0 0 0 2 2l1-1Zm-32-62a6 6 0 0 0 0-6Zm-73-297 1 2v-2Zm72 323h1v-3h-1Zm-20-172h-1l1 2Zm38-48h-1l1 2Zm-91-87h-1l1 2Zm96 47h1v-2h-1Zm-42 95h-1Zm-30-33h1Zm-37-115h1Zm34 272v-1Zm78-328h1ZM1668 2835l2-2 5-5 5-3 10 6v3l5 3 5-1h32c3 0 6-1 10 1l5-1 4 3c4-1 8 1 13 2l6 1h5l4-2 1-2a7 7 0 0 1 1 0h13c4 0 8-2 13-1l3-4a18 18 0 0 1 2 1 27 27 0 0 0 4 3l2-1c4 1 8 4 10 7l9 12a8 8 0 0 1 2 5l-3-3 1 7a7 7 0 0 1-1 7 3 3 0 0 0 0 2 47 47 0 0 1-2 14v5c0 2 1 3-1 4v3c2 5 1 9 1 14l1 13v14c0 5-2 9-1 14-2 5-1 9-1 14l-1 14-1 10v11l1 12a22 22 0 0 0 1 3l1 7 1 18 1 8a74 74 0 0 1 1 7c0 4-1 7-3 9l-1 3-2-3-2 5 3-1-1 3c-3 2-4 6-6 9a66 66 0 0 1-6 9l-13 16-3 6-1-2-3 2h-1c-3-3-5-4-9-2a18 18 0 0 1-8 1l-5 1a34 34 0 0 1-4 0l-16 6-11 2-6 1c-2 0-3-1-5 1h-6a22 22 0 0 1-7 1l-8 4a6 6 0 0 1-2 1l1-3-7 4v1h2l-1 1c-3 0-5 2-8 3l1-2c-1 1-3 0-4 2h-1l1 1-2 1-8 9-7-5-1 2h-1l-2-1 1-1-1-2c4-3 5-7 6-12l3-9a8 8 0 0 1 4-6l-2-1c2-2 1-4 1-6a21 21 0 0 1 3 0 21 21 0 0 1 3 1l9-10 10-10-1-10 1-10v8c2-4 1-7 2-10a16 16 0 0 0 0-8 47 47 0 0 1-1-9h-2v18h-1v-5c1-13-1-26-1-39 0-8 2-15 1-22v-23l2-1c-2-3-1-7-1-11v-16l2 2a7 7 0 0 0 0-3c-2-4-1-8-1-12v-7c-2-1 0-4-2-6l-1-11-2-2a6 6 0 0 0 0-1c-1-3 2-6 1-8l-1-7-2-2v-4l-11-19a13 13 0 0 0-1-1 42 42 0 0 1-4-5l-5-4-2 1c-4-8-12-14-15-22Zm156 207 1 1v-1a6 6 0 0 0-6-3 5 5 0 0 0 5 3Zm-31-161h2c-1-3-2-5-4-6l-6-4c-2 2-5-1-7 2h-8c-1-2-2-1-3-1a4 4 0 0 0-1 1h4l-11 4-13 2a17 17 0 0 1-1 6l-1 8-1 6-3 13-1 9-1 6-1 6a71 71 0 0 0 0 9 45 45 0 0 0 2 9l3 13 1 1v15l1 14-1-1a31 31 0 0 0-3 12c2 2 1 4 1 6l1 10v8a40 40 0 0 1 0 11l1 11v19l2-1c4 4 6 9 8 15l5-1-2 1a5 5 0 0 0 2 1l10-3 5-1c3-2 7-3 10-6l4-1c3-2 8-2 10-5v-52h1c1 0 0 0 0 0v28l1 1v-1l1-10 1-36v-13a19 19 0 0 0 0-2l-1 7-1 7v14a11 11 0 0 1 0 2 7 7 0 0 1-1-4l1-37v-2l2-2c0-3 1-6-1-9a10 10 0 0 0 1-3c0-6 1-13-1-19 0-4 2-10 1-14l-1-17a19 19 0 0 0 0-2v-14a7 7 0 0 0 0-2l-2 4v-5Zm11 107c2-4 1-8 1-11s1-8-1-11v11c-2 3 0 7 0 11Zm-92 15-1-5v-6 13l1-2Zm100-128 1 5c0-2 2-3 1-5ZM463 2879l11-17 2-2-1-9 6-25 14-7 10-3a6 6 0 0 0 5-3l5 2c4-3 9-14 13-14l6-2 6-1 4-4 1-4a8 8 0 0 1 2-1l13-5c4-1 8-5 13-7l3-5a12 12 0 0 1 3 0l4 1c0 1 2 1 2-2 4 0 8 3 10 5l9 14a10 10 0 0 1 2 5l-3-2 1 9a13 13 0 0 1-1 9 7 7 0 0 0 0 3 89 89 0 0 1-2 19l-1 7c-1 3 1 4-1 6a6 6 0 0 0 0 4c2 5 1 12 1 18l1 18-1 18c0 7-2 13-1 20-2 6-1 12-1 18-1 6 0 12-2 19l-1 14v14l1 17 1 4 1 8 1 25v10l1 10a23 23 0 0 1-3 13l-2 3-1-4-2 6 3-1-1 4c-4 3-4 8-6 12a79 79 0 0 1-7 11c-4 7-10 12-13 19l-4 7v-3l-3 2-2-1c-2-3-4-5-8-4a14 14 0 0 1-9 0h-4a31 31 0 0 1-5 0l-16 4h-22c-2 1-4-1-6-1a17 17 0 0 1-7 0l-8 3a5 5 0 0 1-2 0l1-2-7 3 2 1-1 1-8 1 1-2-4 1-1 1h1c0 2-1 1-3 1l-7 7-7-6-1 2c-1 1-1-1-1-1h-2l1-2-1-2c4-2 5-6 6-10l3-9a7 7 0 0 1 5-5l-2-2v-6l6 2 9-10 11-8-1-11v-11l1 3v5c2-4 0-7 1-10a18 18 0 0 0 1-9 56 56 0 0 1-1-10h-2v19h-1v-5c0-14-2-28-1-42l1-24v-24l2-1c-2-4-1-8-1-12v-17l2 1v-2c-2-4-1-9-1-13v-8c-2-1 0-5-2-6v-1l-1-11-2-1a5 5 0 0 0 0-2l2 2-1-8-2-1v-5Zm124 162 1 1a8 8 0 0 1 0-1 6 6 0 0 0-6-4c2 3 3 4 5 4Zm-52-205c-1-2-3 0-4 0a10 10 0 0 0 0 1 39 39 0 0 1 4-1v1l-12 8-13 6a24 24 0 0 1-1 7l-2 10-1 8-3 15-1 10-1 8-1 7a91 91 0 0 0 0 10 54 54 0 0 0 1 10l3 14 2 1v33l-1-1a47 47 0 0 0-3 14c2 2 1 5 1 8l1 10v10a51 51 0 0 1 0 12l1 13v22l1-2c5 5 7 12 8 19l5-1-1 2h1l10-2 5-1c4-2 8-3 11-6l4-1c4-2 8-1 11-5v-66h1v36h1l1-14c1-15 0-30 2-44v-20c0 6-3 12-2 18l-1 17a17 17 0 0 1 0 3 11 11 0 0 1 0-5c-1-15 1-31 1-47v-2l2-3v-12a18 18 0 0 0 0-4v-23c-1-6 1-13 1-19l-1-21a30 30 0 0 0 0-3v-17a8 8 0 0 0 0-2l-2 5 1-6-6-8h2c-2-6-5-9-10-9-2 3-5 0-8 4l-7 3Zm32 135c3-4 2-9 2-14s1-9-1-13v13c-2 5-1 10-1 14Zm-95 28 2-2a28 28 0 0 1-1-4 38 38 0 0 1 0-5v-3h-1Zm106-175v7a15 15 0 0 0 2-7ZM1383 3173v-2h-2l-7-5-4 2-8-8c-4-2-6-5-8-8l-8-8 1-3-2 1-5-1h-5a46 46 0 0 0-5 0l-4-1c1-2 3-3 5-3l9-6 1-7v-9l1 3 4-22-2-1 1-7v-18l-1 10v-10a9 9 0 0 1 1-4l1-5v-20a21 21 0 0 1 3-10l-1-3v-3l-1-4a7 7 0 0 1-1-5c0-2 2-4 1-6a14 14 0 0 1-1-6l1-17 2-1v-3l4-2a3 3 0 0 0 0-1v-13c0-6 2-12 1-18v-18c0-2 1-4-1-6a5 5 0 0 1 0-5c2-2 1-4 0-7a4 4 0 0 1 0-1l2-1c1-8 0-16-2-24h-2a42 42 0 0 1-4-15c-3-1-6-2-10-1a18 18 0 0 1 1-2l4-3 1 1c2-1 4-1 5-5 0-1 1-2 3-2l2-2-1-1a22 22 0 0 1 4-2h2a17 17 0 0 0-3 2c2 1 3 0 3-2 2 1 3 0 3-1l2-2h2l6-7 8-3h1l6-4a44 44 0 0 0 5 0c2-1 3-2 5 0 1-2 3-1 5-1l2-2 11-1 10 2 2 3 2-1 6 2 14 3 4 5 11 2 1 2 4-1c1 1 3 2 5 0l2 4 2 1 4-2 7 1-11 6a40 40 0 0 0-5 14l-5 1a9 9 0 0 1-1 3 17 17 0 0 0-2 8v13a13 13 0 0 1 0 3 5 5 0 0 1 0 1c0 12 2 23 1 35l-1 8 1 12 4 3a6 6 0 0 1 7 0l2-1 2 1-13 9a142 142 0 0 1-24 14l-7 23c7 14 10 29 17 44h-2a24 24 0 0 0 6 9h2l-1 5 1 4c2 5 3 10 6 14l-7-12 3 9c0 4 2 8 4 12l3 4-1 2 8 16c1 2 2 5 5 5l3 5 1 5h-2v2h2v-2c2 3 2 3 7 4l15 3-18 4-1-1c-2 0-4 2-6 0-5 0-11-2-16-1l-21 1-6 1-3 1-2-3 6-3 2-2v-7l1-10-2-8a108 108 0 0 1-4-11l-3-7a22 22 0 0 1 0-3l2 2a15 15 0 0 0 0-3l-4-14-4-5v3c-2-1-1-3-1-4-1-2 8 16 8 13-2 0-4-1-4-4l-10-25a116 116 0 0 1-9-26l-4-11-2-6a9 9 0 0 1-3-1l-1-2-4 4v2l-8 8-9 8v11l-1 14c-1 6 1 11 2 16a18 18 0 0 1 1 4v11l-1-13c0 1 1 4-1 5v2c1 4-1 9-1 14l-1 4a30 30 0 0 1 0 4l-1-6v-6c-1-1-1 1-1 1h-3v12h1v-3h1a21 21 0 0 1-1 6 20 20 0 0 0 1 9 809 809 0 0 1 1 1 13 13 0 0 0-1 6l-1 13a34 34 0 0 0 2 13c2 5 3 10 6 14l3 3-1 1v1l6 9 2 3h-1v1a6 6 0 0 0 1-1c2 0 2 0 5 3l-3 1-6-4-2-3Zm-2-5 1 1v-1a2 2 0 0 0-1 0v-1h-1a2 2 0 0 0 1 1Zm-26-202c1-2 2-9 1-16l-1 16h-1l1 1a2 2 0 0 0 0-1Zm30 21h3l-1-2 3-2a7 7 0 0 1 0-6l2 7 8-2 10-5 10-5 2-2 4-2c8-5 9-8 10-16a20 20 0 0 1 1-3c-2-4 0-9-1-14l-1 4c0-5-2-9 0-12l-1-7a34 34 0 0 0 1-6 46 46 0 0 1 1-6l2-1-2-20-2-2v-7l-9-6 1-1a29 29 0 0 0-9-4l1 2a3 3 0 0 1-1 0l-4-2h-7a8 8 0 0 1-1 1l-3-1-2 4-10 7v8a48 48 0 0 1-1 7c0 5 1 9-1 13 1 8-1 17-1 25l-1 5-1-2h-2a12 12 0 0 0 1 5v-2a105 105 0 0 1 1 16l3 15a7 7 0 0 1 0 4l-2-7h-1v7c-2 0 0-3-2-3l-1 10 1 8a8 8 0 0 0 1 1Zm52 100a14 14 0 0 0 0 3 138 138 0 0 0 6 19h1c0-8-4-14-7-22Zm-94 41c3-6 3-6 3-16l-2 3c1 4-1 8-1 13Zm93-247 2 8v-8Zm-76 94v-7l-2 7Zm103 163c-2-1-5-2-7 0Zm-80-127a9 9 0 0 1 2-1 8 8 0 0 1 1-1v-1c-2 0-3 1-3 3Zm-28-36v4l3-1Zm-10 159c-3 0-3 0-2 2Zm89-142 1 1 1-3h-2Zm-54 172v1h2v-1Zm-22-220h-1l1 2Zm109 192h1v-2h-1Zm-63-131v-1h-2v1Zm34-88h-1l1 2Zm-54 73v-1Zm6-5v1Zm-11 87v-1Zm56-109h-1Zm-49-122v-1ZM786 3132c1-2 4-2 5-3l9-6 2-15 1 2 3-22h-1v-26l-1-10v-10a9 9 0 0 1 1-4l1-5v-19a22 22 0 0 1 3-11l-1-3v-3l-1-4a7 7 0 0 1-1-4c0-2 2-5 1-6a14 14 0 0 1-1-7l1-17h2v-4l4-2v-13c0-6 2-12 1-18v-18c0-3 1-5-1-7a5 5 0 0 1 0-4c2-3 1-5 0-8a4 4 0 0 1 0-1h2c1-9-1-17-2-25h-2a42 42 0 0 1-4-15l-10-1a18 18 0 0 1 1-2l4-3 1 1c2-1 4-1 4-5l4-2 2-2-1-1a22 22 0 0 1 4-2c1 0 2-1 2 1a18 18 0 0 0-3 1c2 1 3 0 3-1 2 0 3-1 3-2l2-2h1l7-7 8-3 7-4a44 44 0 0 0 5 0c2 0 3-2 5 0 1-2 3-1 5-1l1-2h1l11-1 10 2 2 3 2-1 6 2 14 3 4 5c4-1 7 1 11 2l1 2 4-1c1 1 3 2 5 0l2 4h2l4-1 7 1-11 5a46 46 0 0 0-5 14l-5 2a9 9 0 0 1-1 2 17 17 0 0 0-2 9v13a12 12 0 0 1 0 2 5 5 0 0 1 0 2c0 12 2 23 1 35l-1 8 1 12 4 3a6 6 0 0 1 7 0l2-1 2 1-13 9a132 132 0 0 1-24 14l-7 23c7 14 11 29 17 43l-2 1a24 24 0 0 0 6 9h2l-1 5 1 4c2 5 3 10 6 14l3 8c2 3 1 6 3 8 0 5 2 9 4 13l3 4-1 2 8 16c1 2 3 4 6 5l2 5 1 5h-2v2h2v-2c3 3 3 3 7 4l15 3-17 4-1-1c-2 0-4 2-6 0h-1c-5 0-11-2-16-1l-21 1-6 1-3 1-2-3 6-3 2-2v-7c2-3 1-7 1-10l-2-8a107 107 0 0 1-4-11l-2-7a21 21 0 0 1-1-3l2 2a15 15 0 0 0 0-3l-4-14-4-5v3c-2-1 0-3-1-4l-2-7c-2 0-4-1-4-4l-10-25a116 116 0 0 1-9-26c-1-4-1-8-4-11a29 29 0 0 1-2-6l-5-2-3 3v2l-8 8-9 8v11c0 5 1 10-1 14-1 6 1 11 3 16a19 19 0 0 1 0 4v11a44 44 0 0 1-1 7c0 1 1 4-1 5v2c1 4-1 9-1 14l-1 4a30 30 0 0 1 0 4l-1-6v-6c-1-1-1 1-1 1h-3v12h1v-3h1a21 21 0 0 1-1 6 20 20 0 0 0 1 9v-5c1 2 2 4 1 6a13 13 0 0 0-1 6c1 5-1 9-1 13a34 34 0 0 0 2 13c2 5 3 10 6 14l3 3-1 2 6 7 2 5h-1l1 1a6 6 0 0 0 0-1c3-1 3 2 6 3l-4 1-6-4h1l-3-3h-3v-2h-2l-7-5-4 2-8-8-8-8-8-8 2-3-3 1-4-1h-5a44 44 0 0 0-5 0l-5-1Zm55 28 1 1v-1a2 2 0 0 0-1 0v-1h-1a2 2 0 0 0 1 1Zm-26-222c1-2 2-9 1-16l-1 16h-1l1 1a2 2 0 0 0 0-1Zm30 6c-2 0 0-3-1-3l-2 10 1 8a1 1 0 0 0 2 1v-1h3l-1-2 3-2v-6l2 7 8-2 10-5 10-5 2-2 4-2c8-5 9-8 10-16a20 20 0 0 1 1-3c-2-4 0-9-1-14l-1 3c0-4-2-8 0-11l-1-7a34 34 0 0 0 1-6 46 46 0 0 1 1-6l2-1-2-20-2-2v-7l-9-6 1-1a29 29 0 0 0-9-4l1 2a3 3 0 0 1-1 0l-4-2h-7a8 8 0 0 1-1 0l-3-1-2 5-10 7v8a48 48 0 0 1-1 7c0 5 1 9-1 13 1 8-1 17-1 25l-1 5-1-2h-2a12 12 0 0 0 1 5v-2a105 105 0 0 1 1 16l3 15a7 7 0 0 1 0 4l-2-7h-1Zm69 157c0-8-4-15-6-21a3 3 0 0 0-1 2 132 132 0 0 0 6 19Zm-110 19a44 44 0 0 0 2-4l1-5-1-7a9 9 0 0 0-2 5l-1 11Zm94-259v-8h-2c-1 3 2 5 2 8Zm-78 86v-6h-1l-1 5Zm106 182h7Zm-80-149c-2 0-3 1-3 3l3-2v-1Zm-31-29 2-1-2-2Zm-10 175-1-1a24 24 0 0 0-2 3l1 1Zm91-164h-2v3Zm-54 195v-1h-2v1Zm95-29h1v-2h-1Zm-120-210h1v-2h-1Zm45 58 1 1 1-1Zm36-87v2Zm-54 72v1Zm6-4v1Zm-11 107v-1Zm56-128v-1Zm-49-124v1ZM674 3026l-1 1 2 2 1-1 1 5 2 4 3-1c3 7 9 9 15 14l1 2h-2a9 9 0 0 0-2-2v1a9 9 0 0 0 1-1h-1a9 9 0 0 1 2 2l9 9 1-1 3 3 6 5h-1l1 1 1 1v-1h3a65 65 0 0 1 11-19l4-5a19 19 0 0 0 4-6c2-3 3-6 2-9l-3-6-3-6c1-3 3-6 2-9l2-2-2-1v-5c1-10-1-21-1-31v-14c-2-1-4-1-5-3l4-1-3-2 3-2h1l11-9 6-3a8 8 0 0 0 2-2l13-12c3-4 7-6 12-8l4-1c-1 3-3 5-3 8 0 6-3 12-2 19l-2 2v3l-2 1 1 1c-2 5-1 9-2 14l-2 10a17 17 0 0 0-1 3v10c-2 11 0 22-1 32l2 12 3 7v6c-1 5-4 8-7 12a13 13 0 0 0-2 5 12 12 0 0 1-3 7l-6 5 1 2-8 18c-1 3-3 7-7 9a5 5 0 0 0-2 3l-6 9-3 4 1 1-3 2-1 11-2 2v-12l-11-8a6 6 0 0 0-3-2l-9-1-6-8-12-10c-4-4-9-6-11-11l-3-3-5-6h-4c-6-5-13-8-19-12l-8-3-15-8 11-13 3-15 1 3a7 7 0 0 0 1-6l-1 3c0-3-2-6 0-9 0-5 2-10 1-15a27 27 0 0 1-1-11l1-18 1-9 2-2v-10l-1-19a53 53 0 0 0-1-7h2v-7l-4-10v-2l2 1-1-3 5-8v-30a36 36 0 0 0-1-6v-5l-2-7a38 38 0 0 0-1-10 5 5 0 0 1-1-3v-4a6 6 0 0 0-1-1l-2-3-1-2 3 1-2-4c5 0 8-2 12-5 3-1 6 1 9 3l2-1a5 5 0 0 0 4 1c3-2 5-1 7-1h6a32 32 0 0 0 9-1c2-1 5 1 8-1h21a108 108 0 0 0 14 1l5-1a35 35 0 0 1 5 0h4a1 1 0 0 0 0 1c3-2 7 0 10-2 2-1 5 1 8-1l7-1 5-6c1 2 3 1 4 0l8 4 5-2-2 2c1 2 0 5-1 7l-3 9c-1 3-3 7-1 10 0 3 2 5 1 7l-1 6-1 5c-1 2-2 5-5 7l-12 12-10 7 1-4-1-1c-1-4-1-8-4-11a5 5 0 0 1-1-4l2 1-3-13-1 3-1-4h-8l-10-1c-4-1-8 1-12 2l-3 1c-4 0-9-2-13 1-2-2-3-1-5-1l-4 2 1 1c-7 2-11 4-17 8a4 4 0 0 0 0 1c2 7 1 13 1 19v12c0 3 1 5-1 8a5 5 0 0 0 0 4c2 3 1 5 0 9 5-2 10-1 14-1l-2 1v1l1 1c3-2 5-2 8-2a26 26 0 0 1 7-2l9-2 4-3h16c3-3 6-5 10-4l14-11-2 4a38 38 0 0 1-7 7 6 6 0 0 0 1 0v-2h-1a12 12 0 0 0-1 1c-1 0-1 1 1 1-2 4-1 9 0 14a43 43 0 0 0-2 5c-1 2-3 4 1 6-5 1-6 4-8 6v-2c-1 2-2 2-1 4a15 15 0 0 1 1-2c1 2-1 4-2 5l-4 5-1-5a10 10 0 0 1-1 0 15 15 0 0 0-2-2l-3 1 5 1-1 1-9-1-3 1-1-1h-1l-6 2a76 76 0 0 0-9 2l-8 2a8 8 0 0 0-3 1l-6 3-6 8h-5v34c2 6 1 13 1 19l1 7 1 7 2 7Zm-7-37c0 7 2 13 1 20a7 7 0 0 0 1 2v-20a110 110 0 0 1-1-15v-19h-2v13c0 4 1 7-1 11a8 8 0 0 0 2 8Zm4-122h-1v9l1 10Zm20-55v1h-2v1h8v-2Zm42 238a8 8 0 0 0-4 8Zm-95-150 1 5c0-2 2-3 1-5Zm37 133-3-4v1Zm-13-10a8 8 0 0 1 1 1 7 7 0 0 1 1 2l1-1c0-1-1-2-3-2Zm63-120c-3 0-3 0-3 2Zm-1 187c1 1 1 1 1-2Zm-2 4v-2Zm-52-64h-1l1-2Zm63-217v2Zm3 233h1ZM226 3125l-6-3-9-8-12-6-13-1-5-4h-5c2-2 2-4 5-3l4-5 1-9-4-14h-1l-16 13a8 8 0 0 1-3 2 9 9 0 0 0-7 6h-3l-10 7a24 24 0 0 0-4 2l-20 21c-5-3-5-4-9-9l-5-8a10 10 0 0 1-3-4c0-2-2-2-3-4l-4-3-7-2-6-5 1-3c-1-10 2-19 1-29v-8l-1-16a50 50 0 0 1-1-13c1-7-1-14-1-20v-3l2-2v-11l5 3v-10c1-7-2-14-1-21-2-7 0-14-1-21l-1-10a16 16 0 0 1-1-5v-23l-2-2c0-2-1-4 1-6a2 2 0 0 0 0-2c-2-1 0-3-1-5l2-1v-7h1v4l1-1-1-5a17 17 0 0 1-1-7l-1-16-1-7a15 15 0 0 0-1-5l-5-10c-1-2-3-4-3-8l2 1v-2c-2-3-2-6-2-10v-6l4-2a152 152 0 0 0 22 8l23 8-4 6a7 7 0 0 1 0 2c-2 2-2 5-2 8l1 18a10 10 0 0 1 1 7l-1 16-1-4-1 1v5c0 2 1 4-1 6 0 0-1 2 1 3v2h2c0 4 1 9-1 13s1 9 1 13l-2-1v7l1-1 1 2v-7h1c0 3 2 7 1 11l-1-1-1 3 2 1a3 3 0 0 1 0 1v9c-2 8-1 16-1 23v23l1 8v8c-2 7-1 14-1 21l1 24 2 10a56 56 0 0 1 13 17 20 20 0 0 0 2-2l22-21 7-4 2 1 2-2-2-1 6-3 4-7c3-4 4-9 3-14l-1-3c-2-23 0-46-1-69 0-4 2-7 1-11h2a2 2 0 0 0 0-1l1-14v-13c0-3 2-5 1-8 4-3 4-7 5-12a54 54 0 0 0 1-6v-7c2-4 1-7 1-11a16 16 0 0 0-1-7l-1-13c0-2 1-5-1-7-1-1 1-4-1-6v-5c1-3-1-6-2-9l-5-10a6 6 0 0 1 0-2c4-1 8 1 11 2l13 6a6 6 0 0 0 2 1 9 9 0 0 1 5 1 6 6 0 0 0 5 0c3-2 6-1 9-1l5 1 5 1c-3 1-7 1-9 4a37 37 0 0 1 0 4v8l-1 8-1 5-2 1c1 10-1 21-1 31l1 6 1 6v5l1 4-7 13c1 3 0 8 2 11 0 3 1 6-1 9a8 8 0 0 0-1 2 78 78 0 0 0-1 15v7a7 7 0 0 0 0 6 18 18 0 0 1 3 12v4l-1 8c0 2 1 5-1 8v18h-2l-2 3 3 5v16l1 2a8 8 0 0 0 1 3 5 5 0 0 1 0 5 7 7 0 0 0-1 5 18 18 0 0 1 0 12 4 4 0 0 0 0 3c2 3 1 6 1 10l1 13 2 4-1 4 2-1 5 13a35 35 0 0 1 4 11 33 33 0 0 0 2 7v3c-2 2-2 2-5-1l1 1c1-2 0-2-1-1Zm-1-16 1 1v-1a2 2 0 0 0-1 0v-1h-1a2 2 0 0 0 1 1Zm-113 5 1 1v-2c-1 0-2-1-2-3-1 3 0 3 1 4Zm11-52c2 4 1 9 5 12l1-2c0-4-3-7-6-10Zm64 15v-7l-1 1v-2l-2 1 2 9Zm-71-116-2 5a64 64 0 0 0 2 9Zm0-25c1-3-1-4-1-6l-1-6v12Zm106 165a7 7 0 0 0 0 4l2 1ZM97 2808c1 1 1 2 3 1-1 0-1-2-3-1Zm130 303h-1l1 3Zm-102-50h1ZM1562 3137a8 8 0 0 0 0-1l1-1a5 5 0 0 0-1 1l-4-1-1 1-10-4h-5v-2l-18-3c0-2-1-1-2-1a9 9 0 0 1-5-1c-2 2-4 2-7 3l1-3 2-3 2-4a4 4 0 0 0 1-2c0-4 3-8 5-11l7-12c-2-6 0-12-1-19a11 11 0 0 0 0-2 11 11 0 0 1 0-7 5 5 0 0 0 0-3v-9l1-13v-37c0-7 2-14 1-21 2-5 1-10 2-14a60 60 0 0 0 0-11 15 15 0 0 0-1-6c0-2 1-4-1-6v-3c0-3 1-6-1-9a2 2 0 0 1 0-2c2-2 1-5 1-7v-12l-1-31-1-7c0-2 1-4-1-6 1-4-1-7-1-10a77 77 0 0 0-1-8h-3v-7l-6-3h2c0-3 1-5 2-5 4-1 6-3 9-5a60 60 0 0 1 10-7l7-4 2-1 1 1 8-5 2 1c7-4 13-8 17-14h2l2-3a16 16 0 0 1 9 5c1 3-1 5-2 7l-11 14-4 7a22 22 0 0 1-2 2c1 4-1 7-1 10l-2 10a39 39 0 0 0-2 9l-1 18 1 8v9l1 11c0 3 2 5 1 7l-1 14-1-2-2 3 2 1c0 4 1 8-1 12v1c1 6-1 12-1 19l1 7c1 3 0 6-1 9a27 27 0 0 0-1 6v7l2 2c-1 3 2 7-1 10l1 1 1 18a30 30 0 0 1-1 5c0 2 1 4-1 5v14l3 10 6 18c1 4 3 7 3 11 2 1 0 4 2 5l2 11 3 1 3-1 14 5-1 3h1l3-2h5l15-11c2-10 0-20 1-30l1-17c3-12 2-24 2-36l1-6c1-2 0-4-1-6a23 23 0 0 1-2-11c-3-2-3-5-3-9-2-1-1-5-5-5 3-4 6-8 10-10l2 1v-3h4a37 37 0 0 1 2-3l11-11c2-2 4-5 3-9 4-2 8-4 10-9a18 18 0 0 1 3 2l4 2 2 4-4 10-1 1a91 91 0 0 1-1 13c0 4 1 9-1 14h-2l-1 1c0 7 2 13 1 20 2 5 1 11 1 16l1 18c2 4 1 8 2 12v11c2 11 1 21 1 31a47 47 0 0 0 1 6l-6 9-11 11c-4 4-8 6-10 11l2 2-5 5-11 12a44 44 0 0 0-3 4v13l-7-5v-2l-6-1c-3-5-7-6-11-8h-8c-2-3-6-3-9-4-4-1-8-3-13-3l-3-1Zm2-24 1 1v-1l-3-1 1 1a9 9 0 0 0 1-1v1Zm-25-9v-1h-1a2 2 0 0 0 1 1v2h2v-2a8 8 0 0 0-2 0Zm78 0c-3 0-4 2-7 4 4 0 5-3 6-4l1-1v1Zm-87-252h1v-8l-1-1-3 3 2 4 1-1v3Zm3 32h-1v7l1 8Zm96 166h1v-7l-1-7Zm-98-10c0-2 1-4-1-5-1 2-1 3 1 5Zm1-172-1-5c-1 2-1 4 1 5Zm5 76h1v-4h-1Zm30 167-2-2 1 3Zm-42-262h1v-3h-1Zm4 219h1v-3h-1Zm34-213v3Zm2 281h3Zm-17-133v3Zm-26 103v1Zm47 8v1Zm-10-125v-1Z" transform="translate(41 -1985)"/><path class="cls-1" d="M268 2951v13l2 1-1 11c0 2 1 4-1 5v-30ZM215 3034v-21h1v20l-1 1ZM114 2883l2-8v9ZM1739 2915v11l-1-6v-5ZM1493 3066c-2-1-2-3-2-5 2 1 2 3 2 5ZM911 3066c-2-1-2-3-2-5 2 1 2 3 2 5ZM1426 3063v15h1v-15ZM1738 2905v6-6ZM745 2870v-6c2 2 1 4 0 6ZM1737 2896v4h-1v-4ZM787 2821c1-1 1-3 4-2Z" transform="translate(41 -1985)"/><ellipse class="cls-1" cx="1433.4" cy="1080.9" rx=".3" ry="2.1"/><path class="cls-1" d="M403 3063v3l-1-3ZM1491 3061c-2-1 0-2-1-3 2 0 1 2 1 3ZM909 3061c-2-1 0-2-1-3 2 0 1 2 1 3ZM747 2873c-2-1 0-2-1-3 2 0 1 2 1 3ZM1490 3058c-2-1 0-2-1-3 2 0 1 2 1 3ZM908 3058c-2-1 0-2-1-3 2 0 1 2 1 3ZM1489 3055c-2-1 0-2-1-3 2 0 1 2 1 3ZM907 3055c-2-1 0-2-1-3 2 0 1 2 1 3ZM1488 3052c-2-1 0-2-1-3 2 0 1 2 1 3ZM906 3052c-2-1 0-2-1-3 2 0 1 2 1 3ZM731 2970h-3 3ZM935 2914v3l-1-3ZM1517 2914v3l-1-3ZM402 3071v-2h1v1Z" transform="translate(41 -1985)"/><ellipse class="cls-1" cx="1466.4" cy="1083.4" rx=".3" ry="1.4"/><ellipse class="cls-1" cx="884.4" cy="1083.4" rx=".3" ry="1.4"/><path class="cls-1" d="M1356 3062h1v1l-1-1ZM699 3069l1 1ZM675 3043h1v1l-1-1Z" transform="translate(41 -1985)"/><ellipse class="cls-1" cx="1153.4" cy="799.9" rx=".7" ry=".2"/><ellipse class="cls-1" cx="1389.9" cy="861.9" rx="4.3" ry="2.5"/><path class="cls-1" d="m1867 2814-1-1h1v1ZM1224 2800Z" transform="translate(41 -1985)"/><ellipse class="cls-1" cx="1152.4" cy="797.9" rx=".2" ry=".7"/><path class="cls-1" d="m578 2814-1-1h1v1Z" transform="translate(41 -1985)"/><ellipse class="cls-1" cx="735.4" cy="877.9" rx=".2" ry=".7"/><path class="cls-1" d="m1352 2851 1-1-1 1ZM1717 2813l-1-1h1v1ZM1225 2799ZM1013 2997l-1-1h1v1ZM428 2783l-1-1h1v1ZM752 2893v1l-1-1h1Z" transform="translate(41 -1985)"/><ellipse class="cls-1" cx="368.4" cy="1009.9" rx=".7" ry=".2"/><path class="cls-1" d="m330 2995-1-1h1v1Z" transform="translate(41 -1985)"/><ellipse class="cls-1" cx="367.4" cy="1007.9" rx=".7" ry=".2"/><path class="cls-1" d="m1411 2812-1-1h1v1ZM1225 2799l1-1-1 1Z" transform="translate(41 -1985)"/><ellipse class="cls-1" cx="366.4" cy="1004.9" rx=".7" ry=".2"/><path class="cls-1" d="m829 2812-1-1h1v1ZM1223 2796v1l-1-1h1ZM1707 2924l1-1-1 1ZM1223 2796l1-1-1 1Z" transform="translate(41 -1985)"/><ellipse class="cls-1" cx="365.4" cy="1002.9" rx=".7" ry=".2"/><ellipse class="cls-1" cx="364.4" cy="1000.9" rx=".7" ry=".2"/><path class="cls-1" d="m636 2917-1-1h1v1ZM1610 2805ZM1611 2804l1-1-1 1ZM1213 3003a32 32 0 0 1 0 12ZM1310 2888v-6c2 2 1 4 0 6ZM1309 2882v3l-1-3ZM1307 2862v-3l1 13v3l-1-13Z" transform="translate(41 -1985)"/><ellipse class="cls-1" cx="1357.4" cy="1047.9" rx=".3" ry="2.1"/><path class="cls-1" d="M1306 2849v-3h1v2ZM1260 2829h1v1ZM1235 2840h1v1l-1-1ZM1224 2847l1-1-1 1ZM1224 2847v1l-1-1h1ZM1789 3059h2l-2 1v-1ZM1789 3060v1l-1-1h1ZM1842 2859l-1-1h1v1ZM520 3059h2l-2 1ZM520 3060v1l-1-1h1ZM553 2859l-1-1h1v1ZM1485 2854l1 4a6 6 0 0 1 0 3l-1-2-1 1v-6ZM1436 2930v4-4ZM1439 2932v2l-1-2Z" transform="translate(41 -1985)"/><ellipse class="cls-1" cx="1477.4" cy="950.4" rx=".3" ry="1.4"/><ellipse class="cls-1" cx="1478.4" cy="954.4" rx=".3" ry="1.4"/><path class="cls-1" d="m1471 2828-3-1a7 7 0 0 1 2 0l1 1Z" transform="translate(41 -1985)"/><ellipse class="cls-1" cx="1512.4" cy="842.9" rx=".2" ry=".7"/><path class="cls-1" d="m1435 2945-1-1h1v1Z" transform="translate(41 -1985)"/><ellipse class="cls-1" cx="1487.4" cy="953.9" rx=".7" ry=".2"/><ellipse class="cls-1" cx="1496.4" cy="949.9" rx=".2" ry=".7"/><ellipse class="cls-1" cx="1505.4" cy="945.9" rx=".7" ry=".2"/><ellipse class="cls-1" cx="1507.4" cy="944.9" rx=".2" ry=".7"/><path class="cls-1" d="m904 2861-1-2-1 1v-6h1l1 6ZM854 2930v4-4Z" transform="translate(41 -1985)"/><ellipse class="cls-1" cx="897.4" cy="947.4" rx=".3" ry="1.4"/><path class="cls-1" d="M855 2935v2l-1-2Z" transform="translate(41 -1985)"/><ellipse class="cls-1" cx="896.4" cy="954.4" rx=".3" ry="1.4"/><path class="cls-1" d="m889 2828-3-1a7 7 0 0 1 2 0l1 1Z" transform="translate(41 -1985)"/><ellipse class="cls-1" cx="930.4" cy="842.9" rx=".7" ry=".2"/><path class="cls-1" d="m853 2945-1-1h1v1Z" transform="translate(41 -1985)"/><ellipse class="cls-1" cx="905.4" cy="953.9" rx=".7" ry=".2"/><ellipse class="cls-1" cx="914.4" cy="949.9" rx=".7" ry=".2"/><ellipse class="cls-1" cx="923.4" cy="945.9" rx=".2" ry=".7"/><ellipse class="cls-1" cx="925.4" cy="944.9" rx=".2" ry=".7"/></svg>